<mxfile host="app.diagrams.net" modified="2023-06-26T10:05:14.961Z" agent="Mozilla/5.0 (Windows NT 10.0; Win64; x64; rv:109.0) Gecko/20100101 Firefox/114.0" etag="OnsI8-u7wedVkqG3bpT-" version="21.5.0" type="github">
  <diagram name="Page-1" id="kSBv9vh_wI3Kf15emFKs">
    <mxGraphModel dx="1956" dy="964" grid="1" gridSize="10" guides="1" tooltips="1" connect="1" arrows="1" fold="1" page="1" pageScale="1" pageWidth="827" pageHeight="1169" math="0" shadow="0">
      <root>
        <mxCell id="0" />
        <mxCell id="1" parent="0" />
        <mxCell id="NXwhkhInC5fZLWhPPABW-1" value="" style="shape=table;startSize=0;container=1;collapsible=0;childLayout=tableLayout;" vertex="1" parent="1">
          <mxGeometry x="99" y="100" width="630" height="918" as="geometry" />
        </mxCell>
        <mxCell id="NXwhkhInC5fZLWhPPABW-2" value="" style="shape=tableRow;horizontal=0;startSize=0;swimlaneHead=0;swimlaneBody=0;strokeColor=inherit;top=0;left=0;bottom=0;right=0;collapsible=0;dropTarget=0;fillColor=none;points=[[0,0.5],[1,0.5]];portConstraint=eastwest;" vertex="1" parent="NXwhkhInC5fZLWhPPABW-1">
          <mxGeometry width="630" height="90" as="geometry" />
        </mxCell>
        <mxCell id="NXwhkhInC5fZLWhPPABW-3" value="User" style="shape=partialRectangle;html=1;whiteSpace=wrap;connectable=0;strokeColor=inherit;overflow=hidden;fillColor=none;top=0;left=0;bottom=0;right=0;pointerEvents=1;" vertex="1" parent="NXwhkhInC5fZLWhPPABW-2">
          <mxGeometry width="210" height="90" as="geometry">
            <mxRectangle width="210" height="90" as="alternateBounds" />
          </mxGeometry>
        </mxCell>
        <mxCell id="NXwhkhInC5fZLWhPPABW-4" value="System" style="shape=partialRectangle;html=1;whiteSpace=wrap;connectable=0;strokeColor=inherit;overflow=hidden;fillColor=none;top=0;left=0;bottom=0;right=0;pointerEvents=1;" vertex="1" parent="NXwhkhInC5fZLWhPPABW-2">
          <mxGeometry x="210" width="210" height="90" as="geometry">
            <mxRectangle width="210" height="90" as="alternateBounds" />
          </mxGeometry>
        </mxCell>
        <mxCell id="NXwhkhInC5fZLWhPPABW-5" value="Database" style="shape=partialRectangle;html=1;whiteSpace=wrap;connectable=0;strokeColor=inherit;overflow=hidden;fillColor=none;top=0;left=0;bottom=0;right=0;pointerEvents=1;" vertex="1" parent="NXwhkhInC5fZLWhPPABW-2">
          <mxGeometry x="420" width="210" height="90" as="geometry">
            <mxRectangle width="210" height="90" as="alternateBounds" />
          </mxGeometry>
        </mxCell>
        <mxCell id="NXwhkhInC5fZLWhPPABW-6" value="" style="shape=tableRow;horizontal=0;startSize=0;swimlaneHead=0;swimlaneBody=0;strokeColor=inherit;top=0;left=0;bottom=0;right=0;collapsible=0;dropTarget=0;fillColor=none;points=[[0,0.5],[1,0.5]];portConstraint=eastwest;" vertex="1" parent="NXwhkhInC5fZLWhPPABW-1">
          <mxGeometry y="90" width="630" height="828" as="geometry" />
        </mxCell>
        <mxCell id="NXwhkhInC5fZLWhPPABW-7" value="" style="shape=partialRectangle;html=1;whiteSpace=wrap;connectable=0;strokeColor=inherit;overflow=hidden;fillColor=none;top=0;left=0;bottom=0;right=0;pointerEvents=1;" vertex="1" parent="NXwhkhInC5fZLWhPPABW-6">
          <mxGeometry width="210" height="828" as="geometry">
            <mxRectangle width="210" height="828" as="alternateBounds" />
          </mxGeometry>
        </mxCell>
        <mxCell id="NXwhkhInC5fZLWhPPABW-8" value="" style="shape=partialRectangle;html=1;whiteSpace=wrap;connectable=0;strokeColor=inherit;overflow=hidden;fillColor=none;top=0;left=0;bottom=0;right=0;pointerEvents=1;" vertex="1" parent="NXwhkhInC5fZLWhPPABW-6">
          <mxGeometry x="210" width="210" height="828" as="geometry">
            <mxRectangle width="210" height="828" as="alternateBounds" />
          </mxGeometry>
        </mxCell>
        <mxCell id="NXwhkhInC5fZLWhPPABW-9" value="" style="shape=partialRectangle;html=1;whiteSpace=wrap;connectable=0;strokeColor=inherit;overflow=hidden;fillColor=none;top=0;left=0;bottom=0;right=0;pointerEvents=1;" vertex="1" parent="NXwhkhInC5fZLWhPPABW-6">
          <mxGeometry x="420" width="210" height="828" as="geometry">
            <mxRectangle width="210" height="828" as="alternateBounds" />
          </mxGeometry>
        </mxCell>
      </root>
    </mxGraphModel>
  </diagram>
</mxfile>
